# Blender v2.78 (sub 0) OBJ File: ''
# www.blender.org
mtllib paredes.mtl
o paredes_Plane
v 20.050001 -8.650011 56.000000
v 40.100002 -8.650011 56.000000
v 40.100002 -8.650011 56.000000
v 20.050001 -8.650011 56.000000
v 40.100002 -8.649984 -4.000001
v 40.100002 18.650009 -3.999997
v 41.501003 18.650009 -3.999997
v 41.501003 -8.649984 -4.000001
v 40.899502 -8.650011 56.000000
v 40.100002 -8.650011 56.000000
v 40.100002 -8.650011 57.000000
v 40.899502 -8.650011 57.000000
v 60.150002 -8.649984 -4.000001
v 60.150002 18.650009 -3.999997
v -20.050003 -8.649989 7.999999
v -20.050003 -8.650011 56.000000
v -20.050003 18.649982 56.000004
v -20.050003 18.650003 8.000003
v 20.050001 -8.649984 -4.000001
v 0.000000 -8.649984 -4.000001
v 0.000000 18.650009 -3.999997
v 20.050001 18.650009 -3.999997
v 60.150002 -8.650011 56.000000
v 60.150002 18.649982 56.000004
v -40.100002 -8.649989 7.999999
v -40.100002 18.650003 8.000003
v 20.050001 -8.649995 19.999998
v 21.050001 -8.649984 -4.000001
v 21.050001 -8.649995 19.999998
v -40.100002 -8.649984 -4.000001
v -40.100002 18.650009 -3.999997
v 20.050001 18.649992 32.000004
v 20.050001 -8.650001 31.999998
v 20.050001 -8.650001 31.999998
v 20.050001 18.649992 32.000004
v 20.050001 18.649982 56.000004
v 20.050001 18.649982 56.000004
v 0.000000 -8.649995 19.999998
v 1.000000 -8.649984 -4.000001
v 1.000000 -8.649995 19.999998
v 0.000000 18.649982 56.000004
v 0.000000 18.649992 32.000004
v 1.000000 18.649992 32.000004
v 1.000000 18.649982 56.000004
v 40.100002 18.649982 56.000004
v 21.050001 18.649982 56.000004
v 40.100002 18.649982 56.000004
v 39.899502 -8.650011 56.000000
v 39.899502 -8.650011 56.000000
v 21.050001 -8.650011 56.000000
v 40.100002 18.649982 56.000004
v 40.100002 18.649992 32.000004
v 40.100002 -8.650001 31.999998
v 39.899502 -8.650001 31.999998
v 39.899502 18.649992 32.000004
v 40.100002 18.649992 32.000004
v 20.050001 18.649982 56.000004
v 20.050001 18.649992 32.000004
v 40.100002 -8.650001 31.999998
v 21.050001 -8.650001 31.999998
v 21.050001 -8.650011 56.000000
v 21.050001 -8.650001 31.999998
v 40.100002 18.649992 32.000004
v 40.899502 18.649992 32.000004
v 40.899502 18.649982 56.000004
v 21.050001 18.649992 32.000004
v 40.899502 -8.650001 31.999998
v 39.899502 -8.650001 31.999998
v 39.899502 -8.650001 31.999998
v 39.899502 18.649992 32.000004
v 40.899502 18.649982 57.000004
v 40.100002 18.649982 57.000004
v 41.501003 -8.649995 19.999998
v 41.501003 18.650000 20.000004
v 40.100002 -8.649995 19.999998
v 40.100002 18.650000 20.000004
v 1.000000 -8.650001 31.999998
v 1.000000 -8.650011 56.000000
v 0.000000 -8.650001 31.999998
v 39.899502 18.649982 56.000004
v 39.899502 18.649982 57.000004
v 0.000000 -8.650011 56.000000
v 21.050001 18.650009 -3.999997
v 21.050001 18.650000 20.000004
v 20.050001 18.650000 20.000004
v 1.000000 18.650009 -3.999997
v 1.000000 18.650000 20.000004
v 0.000000 18.650000 20.000004
v 20.050001 -8.650001 31.999998
v 20.050001 -8.650011 56.000000
v 20.050001 18.649982 56.000004
v 20.050001 18.649992 32.000004
v 20.050001 18.649982 56.000004
v 20.050001 18.649992 32.000004
v 39.899502 -8.650011 56.000000
v 1.000000 -8.650011 57.000000
v 1.000000 18.649982 57.000004
v 20.050001 -8.650011 56.000000
v 20.050001 -8.650001 31.999998
v 20.050001 18.649982 57.000004
v 20.050001 18.649982 57.000004
v 20.050001 18.649982 56.000004
v 20.050001 18.649982 56.000004
v -20.050003 18.649982 57.000004
v -20.050003 -8.650011 57.000000
v -20.050003 -8.650011 56.000000
v -20.050003 18.649982 56.000004
v 21.050001 18.649982 57.000004
v 21.050001 18.649982 56.000004
v 40.100002 18.649982 56.000004
v 0.000000 -8.650011 57.000000
v 0.000000 -8.650011 56.000000
v 1.000000 -8.650011 56.000000
v 21.050001 -8.650011 57.000000
v 40.100002 -8.650011 56.000000
v 21.050001 -8.650011 56.000000
v 0.000000 18.649982 57.000004
v 1.000000 18.649982 56.000004
v 0.000000 18.649982 56.000004
v 39.899502 -8.650011 57.000000
v 20.050001 -8.650011 57.000000
v 20.050001 -8.650011 57.000000
v 40.100002 -8.650011 56.000000
v 60.150002 -8.650011 56.000000
v 60.150002 18.649982 56.000004
v 40.100002 18.649982 56.000004
v 20.050001 -8.650011 56.000000
v 20.050001 18.649982 56.000004
v 40.899502 18.649982 56.000004
v 40.899502 -8.650011 56.000000
v 20.050001 -8.650011 56.000000
v 39.899502 18.649982 56.000004
v 39.899502 -8.650011 56.000000
v 20.050001 18.649982 57.000004
v 60.150002 -8.650011 56.000000
v 60.150002 18.649982 56.000004
v 60.150002 18.649982 57.000004
v 60.150002 -8.650011 57.000000
v 40.100002 18.649982 57.000004
v 40.100002 -8.650011 57.000000
vt 0.0000 0.0000
vt 0.0000 0.0000
vt 0.0000 0.0000
vt 0.0000 0.0000
vt 0.0000 0.0000
vt 0.0000 0.0000
vt 0.0000 0.0000
vt 0.0000 0.0000
vt 0.0000 0.0000
vt 0.0000 0.0000
vt 0.0000 0.0000
vt 0.0000 0.0000
vt 0.0000 0.0000
vt 0.0000 0.0000
vt 0.0000 0.0000
vt 0.0000 0.0000
vt 0.0000 0.0000
vt 0.0000 0.0000
vt 0.0000 0.0000
vt 0.0000 0.0000
vt 0.0000 0.0000
vt 0.0000 0.0000
vt 0.0000 0.0000
vt 0.0000 0.0000
vt 0.0000 0.0000
vt 0.0000 0.0000
vt 0.0000 0.0000
vt 0.0000 0.0000
vt 0.0000 0.0000
vt 0.0000 0.0000
vt 0.0000 0.0000
vt 0.0000 0.0000
vt 0.0000 0.0000
vt 0.0000 0.0000
vt 0.6542 0.0003
vt 0.0000 0.0000
vt 0.0000 0.0000
vt 0.0000 0.0000
vt 0.0000 0.0000
vt 0.0000 0.0000
vt 0.0000 0.0000
vt 0.0000 0.0000
vt 0.0000 0.0000
vt 0.3872 0.2412
vt 0.6678 0.1417
vt 0.6678 0.1417
vt 0.0000 0.0000
vt 0.3949 0.2568
vt 0.1886 0.1725
vt 0.5428 0.5688
vt 0.6572 0.5806
vt 0.7253 0.5688
vt 0.1830 0.1721
vt 0.1813 0.1702
vt 0.1813 0.1702
vt 0.5532 0.4299
vt 0.4150 0.5681
vt 0.4150 0.4299
vt 0.4703 0.4293
vt 0.1386 0.2910
vt 0.4703 0.2910
vt 0.9909 0.9997
vt 0.8526 0.8614
vt 0.9909 0.8614
vt 0.0003 0.5681
vt 0.0003 0.4299
vt 0.6085 0.2910
vt 0.6085 0.4293
vt 0.9331 0.4299
vt 0.7101 0.5107
vt 0.7303 0.5673
vt 0.6915 0.4293
vt 0.6915 0.2910
vt 0.6535 0.1322
vt 0.4620 0.2806
vt 0.6535 0.1322
vt 0.9679 0.2910
vt 0.9679 0.4293
vt 0.3538 0.0007
vt 0.3538 0.0007
vt 0.6585 0.7646
vt 0.3299 0.8011
vt 0.4051 0.8270
vt 0.8520 0.9997
vt 0.7138 0.8614
vt 0.8520 0.8614
vt 0.2783 0.6893
vt 0.1178 0.7447
vt 0.1311 0.7868
vt 0.2115 0.0198
vt 0.3264 0.0128
vt 0.2005 0.0192
vt 0.1871 0.1735
vt 0.1828 0.1749
vt 0.1843 0.1739
vt 0.3161 0.2046
vt 0.2115 0.0198
vt 0.0003 0.1544
vt 0.0168 0.0016
vt 0.0173 0.0007
vt 0.4448 0.2830
vt 0.4064 0.2593
vt 0.4362 0.2750
vt 0.0173 0.0007
vt 0.8707 0.1639
vt 0.6681 0.1381
vt 0.8626 0.1430
vt 0.4889 0.2904
vt 0.0182 0.0003
vt 0.1972 0.0224
vt 0.6476 0.1336
vt 0.0014 0.1540
vt 0.0209 0.0042
vt 0.0012 0.1537
vt 0.9063 0.8608
vt 0.8830 0.7156
vt 0.8898 0.7067
vt 0.0054 0.1508
vt 0.0006 0.1547
vt 0.2005 0.0192
vt 0.3979 0.6943
vt 0.4931 0.6494
vt 0.5124 0.7061
vt 0.3299 0.7061
vt 0.5620 0.6255
vt 0.2974 0.6417
vt 0.2447 0.6606
vt 0.3293 0.5688
vt 0.7239 0.7140
vt 0.7138 0.7067
vt 0.7138 0.7067
vt 0.0003 0.7868
vt 0.8679 0.4417
vt 0.6191 0.5555
vt 0.7567 0.4299
vt 0.5539 0.5673
vt 0.7769 0.4865
vt 0.7131 0.7067
vt 0.4530 0.8452
vt 0.6026 0.7646
vt 0.4547 0.8010
vt 0.6245 0.8030
vt 0.8398 0.1222
vt 0.6613 0.0066
vt 0.8006 0.0079
vt 0.8077 0.0003
vt 0.6542 0.0003
vt 0.6771 0.1269
vt 0.3992 0.2670
vt 0.4340 0.2853
vt 0.8962 0.8535
vt 0.7303 0.8608
vt 0.0799 0.7859
vt 0.1178 0.7447
vt 0.8507 0.1338
vt 0.6690 0.1284
vt 0.0003 0.9257
vt 0.1662 0.7875
vt 0.1662 0.9257
vt 0.3299 0.9841
vt 0.4958 0.8458
vt 0.4958 0.9841
vt 0.3992 0.2670
vt 0.4064 0.2593
vt 0.3992 0.2670
vt 0.1386 0.4293
vt 0.1386 0.2910
vt 0.1386 0.2910
vt 0.3264 0.0128
vt 0.2005 0.0192
vt 0.0003 0.7868
vt 0.0799 0.7859
vt 0.0799 0.7859
vt 0.1830 0.1721
vt 0.3161 0.2046
vt 0.3161 0.2046
vt 0.1311 0.7868
vt 0.1311 0.7868
vt 0.4064 0.2593
vt 0.7371 0.8520
vt 0.7239 0.7140
vt 0.3872 0.2412
vt 0.3949 0.2568
vt 0.1386 0.4293
vt 0.7371 0.8520
vt 0.0003 0.4293
vt 0.1386 0.4293
vt 0.3051 0.7875
vt 0.1669 0.9257
vt 0.1669 0.7875
vt 0.6347 0.8458
vt 0.4964 0.9841
vt 0.4964 0.8458
vt 0.1830 0.1721
vt 0.3264 0.0128
vt 0.1813 0.1702
vt 0.0003 0.7868
vt 0.3949 0.2568
vt 0.7138 0.7067
vt 0.7371 0.8520
vt 0.7303 0.8608
vt 0.1972 0.0224
vt 0.3872 0.2412
vt 0.6542 0.0003
vt 0.7239 0.7140
vt 0.7303 0.8608
vt 0.1178 0.7447
vt 0.5532 0.5681
vt 0.8526 0.9997
vt 0.7138 0.9997
vt 0.0003 0.7875
vt 0.3299 0.8458
vt 0.0003 0.2910
vt 0.3051 0.9257
vt 0.6347 0.9841
vt 0.1972 0.0224
vt 0.6678 0.1417
vn 1.0000 0.0000 0.0000
vn 0.0000 -1.0000 0.0000
vn 0.0000 1.0000 0.0000
vn -1.0000 0.0000 0.0000
vn 0.0000 0.0000 -1.0000
vn -0.9805 0.0000 -0.1966
vn 0.0000 -0.0000 1.0000
vn 0.0000 0.0000 0.0000
vn 0.1464 0.9239 0.3535
vn -0.9239 0.3535 -0.1464
vn 0.0000 -0.0366 -0.9993
usemtl Material.002_NONE
s off
f 36/1/1 121/2/1 1/3/1
f 1/3/2 111/4/2 82/5/2
f 136/6/1 138/7/1 135/8/1
f 51/9/3 137/10/3 136/6/3
f 138/7/3 123/11/3 140/12/3
f 140/12/1 126/13/1 139/14/1
f 2/15/4 139/14/4 51/9/4
f 82/5/2 105/16/2 16/17/2
f 135/8/2 140/12/2 2/15/2
f 41/18/3 134/19/3 36/1/3
f 17/20/3 117/21/3 41/18/3
f 121/2/3 112/22/3 111/4/3
f 137/10/4 124/23/4 138/7/4
f 111/4/3 106/24/3 105/16/3
f 134/19/4 127/25/4 121/2/4
f 139/14/2 125/26/2 137/10/2
f 117/21/2 128/27/2 134/19/2
f 104/28/2 119/29/2 117/21/2
f 138/7/5 139/14/5 137/10/5
f 45/30/6 120/31/6 81/32/6
f 114/33/7 81/32/7 108/34/7
f 121/2/7 108/35/7 101/36/7
f 134/19/5 121/2/5 97/37/5
f 111/4/5 104/28/5 117/21/5
f 36/1/1 134/19/1 121/2/1
f 1/3/2 121/2/2 111/4/2
f 136/6/1 137/10/1 138/7/1
f 51/9/3 139/14/3 137/10/3
f 138/7/3 124/23/3 123/11/3
f 140/12/1 123/11/1 126/13/1
f 2/15/4 140/12/4 139/14/4
f 82/5/2 111/4/2 105/16/2
f 135/8/2 138/7/2 140/12/2
f 41/18/3 117/21/3 134/19/3
f 17/20/3 104/28/3 117/21/3
f 121/2/3 127/25/3 112/22/3
f 137/10/4 125/26/4 124/23/4
f 111/4/3 112/22/3 106/24/3
f 134/19/4 128/27/4 127/25/4
f 139/14/2 126/13/2 125/26/2
f 117/21/2 119/29/2 128/27/2
f 104/28/2 107/38/2 119/29/2
f 138/7/5 140/12/5 139/14/5
f 72/39/8 47/40/8 45/30/8
f 45/30/8 51/9/8 139/14/8
f 71/41/2 72/39/9 45/30/2
f 45/30/1 139/14/10 140/12/1
f 81/32/3 71/41/3 45/30/3
f 45/30/11 140/12/11 120/31/11
f 11/42/7 12/43/7 120/31/7
f 81/32/7 71/41/7 72/39/7
f 114/33/5 11/42/5 120/31/5
f 81/32/7 72/39/7 108/34/7
f 114/33/7 120/31/7 81/32/7
f 4/44/8 1/3/8 121/2/8
f 121/2/2 50/45/2 114/46/2
f 108/35/7 134/19/7 101/36/7
f 101/36/4 4/44/4 121/2/4
f 121/2/7 114/46/7 108/35/7
f 121/2/5 111/4/5 96/47/5
f 97/37/7 117/21/7 134/19/7
f 121/2/5 96/47/5 97/37/5
f 97/37/5 96/47/5 111/4/5
f 111/4/5 105/16/5 104/28/5
f 117/21/5 97/37/5 111/4/5
usemtl Material.002
f 1/48/7 3/49/7 4/44/7
f 6/50/5 8/51/5 5/52/5
f 10/53/3 12/54/3 9/55/3
f 5/56/5 14/57/5 13/58/5
f 15/59/4 17/60/4 18/61/4
f 20/62/5 22/63/5 19/64/5
f 13/58/1 24/65/1 23/66/1
f 15/59/7 26/67/7 25/68/7
f 19/69/2 29/70/2 27/71/2
f 30/72/4 26/67/4 31/73/4
f 32/74/7 34/75/7 35/76/7
f 30/72/5 21/77/5 20/78/5
f 36/79/8 35/76/8 37/80/8
f 20/81/2 40/82/2 38/83/2
f 19/84/5 6/85/5 5/86/5
f 42/87/2 44/88/2 41/89/2
f 45/90/7 46/91/7 47/92/7
f 2/93/7 48/94/7 49/95/7
f 4/44/7 10/53/7 50/96/7
f 51/97/7 37/80/7 45/90/7
f 53/98/5 55/99/5 52/100/5
f 51/97/8 52/100/8 45/90/8
f 33/101/4 57/102/4 58/103/4
f 56/104/7 53/98/7 52/100/7
f 3/49/7 9/55/7 48/94/7
f 60/105/8 61/106/8 62/107/8
f 4/44/3 60/108/3 34/75/3
f 63/109/2 65/110/2 47/92/2
f 34/75/7 66/111/7 35/76/7
f 35/76/2 46/91/2 37/80/2
f 45/90/8 63/109/8 47/92/8
f 54/112/7 64/113/7 55/99/7
f 68/114/8 48/94/8 54/112/8
f 67/115/5 70/116/5 64/117/5
f 48/94/3 67/118/3 54/112/3
f 2/93/2 68/114/2 59/119/2
f 63/109/7 55/99/7 64/113/7
f 53/98/7 68/114/7 54/112/7
f 65/110/2 72/120/2 47/92/2
f 8/51/1 74/121/1 73/122/1
f 5/52/2 73/122/2 75/123/2
f 76/124/3 7/125/3 6/50/3
f 75/123/7 74/121/7 76/124/7
f 77/126/4 44/88/4 43/127/4
f 79/128/7 43/127/7 42/87/7
f 80/129/3 71/130/3 65/131/3
f 82/132/3 77/126/3 79/128/3
f 28/133/1 84/134/1 29/70/1
f 22/135/5 28/133/5 19/69/5
f 85/136/3 83/137/3 22/135/3
f 27/71/7 84/134/7 85/136/7
f 39/138/1 87/139/1 40/82/1
f 21/140/5 39/138/5 20/81/5
f 88/141/3 86/142/3 21/140/3
f 38/83/7 87/139/7 88/141/7
f 89/143/4 91/144/4 92/145/4
f 60/105/5 92/145/5 66/146/5
f 66/146/3 91/144/3 46/147/3
f 46/147/7 90/148/7 50/45/7
f 58/103/8 93/149/8 94/150/8
f 34/75/7 58/103/7 94/150/7
f 34/75/1 93/149/1 4/44/1
f 69/151/4 80/129/4 70/116/4
f 9/152/2 69/151/2 67/115/2
f 78/153/4 97/154/4 44/88/4
f 64/117/3 80/129/3 65/131/3
f 61/106/2 99/155/2 62/107/2
f 50/45/7 98/156/7 61/106/7
f 90/148/8 99/155/8 98/156/8
f 89/143/7 62/107/7 99/155/7
f 65/157/1 67/158/1 64/159/1
f 46/160/1 60/161/1 66/162/1
f 19/69/4 85/136/4 22/135/4
f 5/52/4 76/124/4 6/50/4
f 20/81/4 88/141/4 21/140/4
f 41/89/1 79/128/1 42/87/1
f 100/163/8 102/164/8 103/165/8
f 105/166/1 107/167/1 104/168/1
f 108/169/2 110/170/2 72/120/2
f 111/171/2 113/172/2 96/173/2
f 11/174/3 116/175/3 114/176/3
f 97/154/3 119/177/3 117/178/3
f 44/88/2 117/178/2 41/89/2
f 50/45/4 108/35/4 46/147/4
f 93/149/8 101/179/8 100/163/8
f 10/53/2 114/176/2 50/96/2
f 95/180/4 81/181/4 80/129/4
f 1/48/4 101/179/4 57/102/4
f 82/132/3 96/173/3 78/153/3
f 1/48/8 122/182/8 121/183/8
f 93/149/1 122/182/1 4/44/1
f 46/91/3 72/120/3 47/92/3
f 16/184/4 104/168/4 17/60/4
f 9/152/2 120/185/2 95/180/2
f 112/186/7 107/167/7 106/187/7
f 124/188/7 126/189/7 123/190/7
f 127/191/7 119/192/7 112/193/7
f 115/194/7 109/195/7 116/175/7
f 110/170/5 130/196/5 115/194/5
f 119/177/5 113/172/5 112/197/5
f 127/198/7 103/165/7 102/164/7
f 129/199/7 133/200/7 130/201/7
f 71/202/3 110/170/3 72/120/3
f 121/183/1 102/164/1 101/179/1
f 100/163/4 131/203/4 122/182/4
f 114/46/1 109/204/1 108/35/1
f 120/185/1 132/205/1 81/181/1
f 121/183/8 131/203/8 127/198/8
f 12/206/3 133/200/3 120/185/3
f 96/173/1 118/207/1 97/154/1
f 11/174/2 130/196/2 12/54/2
f 81/181/2 129/199/2 71/130/2
f 1/48/7 2/93/7 3/49/7
f 6/50/5 7/125/5 8/51/5
f 10/53/3 11/174/3 12/54/3
f 5/56/5 6/208/5 14/57/5
f 15/59/4 16/184/4 17/60/4
f 20/62/5 21/209/5 22/63/5
f 13/58/1 14/57/1 24/65/1
f 15/59/7 18/61/7 26/67/7
f 19/69/2 28/133/2 29/70/2
f 30/72/4 25/68/4 26/67/4
f 32/74/7 33/101/7 34/75/7
f 30/72/5 31/73/5 21/77/5
f 36/79/8 32/74/8 35/76/8
f 20/81/2 39/138/2 40/82/2
f 19/84/5 22/210/5 6/85/5
f 42/87/2 43/127/2 44/88/2
f 45/90/5 37/80/5 46/91/5
f 2/93/7 3/49/7 48/94/7
f 4/44/7 3/49/7 10/53/7
f 51/97/7 36/79/7 37/80/7
f 53/98/5 54/112/5 55/99/5
f 51/97/8 56/104/8 52/100/8
f 33/101/4 1/48/4 57/102/4
f 56/104/7 59/119/7 53/98/7
f 3/49/7 10/53/7 9/55/7
f 60/105/8 50/45/8 61/106/8
f 4/44/3 50/96/3 60/108/3
f 63/109/2 64/113/2 65/110/2
f 34/75/7 60/108/7 66/111/7
f 35/76/2 66/111/2 46/91/2
f 45/90/8 52/100/8 63/109/8
f 54/112/7 67/118/7 64/113/7
f 68/114/8 49/95/8 48/94/8
f 67/115/5 69/151/5 70/116/5
f 48/94/3 9/55/3 67/118/3
f 2/93/2 49/95/2 68/114/2
f 63/109/7 52/100/7 55/99/7
f 53/98/7 59/119/7 68/114/7
f 65/110/2 71/202/2 72/120/2
f 8/51/1 7/125/1 74/121/1
f 5/52/2 8/51/2 73/122/2
f 76/124/3 74/121/3 7/125/3
f 75/123/7 73/122/7 74/121/7
f 77/126/4 78/153/4 44/88/4
f 79/128/7 77/126/7 43/127/7
f 80/129/3 81/181/3 71/130/3
f 82/132/3 78/153/3 77/126/3
f 28/133/1 83/137/1 84/134/1
f 22/135/5 83/137/5 28/133/5
f 85/136/3 84/134/3 83/137/3
f 27/71/7 29/70/7 84/134/7
f 39/138/1 86/142/1 87/139/1
f 21/140/5 86/142/5 39/138/5
f 88/141/3 87/139/3 86/142/3
f 38/83/7 40/82/7 87/139/7
f 89/143/4 90/148/4 91/144/4
f 60/105/5 89/143/5 92/145/5
f 66/146/3 92/145/3 91/144/3
f 46/147/7 91/144/7 90/148/7
f 58/103/8 57/102/8 93/149/8
f 34/75/7 33/101/7 58/103/7
f 34/75/1 94/150/1 93/149/1
f 69/151/4 95/180/4 80/129/4
f 9/152/2 95/180/2 69/151/2
f 78/153/4 96/173/4 97/154/4
f 64/117/3 70/116/3 80/129/3
f 61/106/2 98/156/2 99/155/2
f 50/45/7 90/148/7 98/156/7
f 90/148/8 89/143/8 99/155/8
f 89/143/7 60/105/7 62/107/7
f 65/157/1 9/211/1 67/158/1
f 46/160/1 50/212/1 60/161/1
f 19/69/4 27/71/4 85/136/4
f 5/52/4 75/123/4 76/124/4
f 20/81/4 38/83/4 88/141/4
f 41/89/1 82/132/1 79/128/1
f 100/163/8 101/179/8 102/164/8
f 105/166/1 106/187/1 107/167/1
f 108/169/2 109/195/2 110/170/2
f 111/171/2 112/197/2 113/172/2
f 11/174/3 115/194/3 116/175/3
f 97/154/3 118/207/3 119/177/3
f 44/88/2 97/154/2 117/178/2
f 50/45/4 114/46/4 108/35/4
f 93/149/8 57/102/8 101/179/8
f 10/53/2 11/174/2 114/176/2
f 95/180/4 120/185/4 81/181/4
f 1/48/4 121/183/4 101/179/4
f 82/132/3 111/171/3 96/173/3
f 1/48/8 4/44/8 122/182/8
f 93/149/1 100/163/1 122/182/1
f 46/91/3 108/169/3 72/120/3
f 16/184/4 105/166/4 104/168/4
f 9/152/2 12/206/2 120/185/2
f 112/186/7 119/213/7 107/167/7
f 124/188/7 125/214/7 126/189/7
f 127/191/7 128/215/7 119/192/7
f 115/194/7 110/170/7 109/195/7
f 110/170/5 129/216/5 130/196/5
f 119/177/5 118/207/5 113/172/5
f 127/198/7 131/203/7 103/165/7
f 129/199/7 132/205/7 133/200/7
f 71/202/3 129/216/3 110/170/3
f 121/183/1 127/198/1 102/164/1
f 100/163/4 103/165/4 131/203/4
f 114/46/1 116/217/1 109/204/1
f 120/185/1 133/200/1 132/205/1
f 121/183/8 122/182/8 131/203/8
f 12/206/3 130/201/3 133/200/3
f 96/173/1 113/172/1 118/207/1
f 11/174/2 115/194/2 130/196/2
f 81/181/2 132/205/2 129/199/2
